<svg width="178" height="129" viewBox="0 0 178 129" fill="none" xmlns="http://www.w3.org/2000/svg">
<path d="M6.09 123.048H0V128.805C0.0148362 128.935 0.190824 129 0.527452 129H0.980724C1.31633 129 1.49283 128.935 1.50664 128.805V126.249H4.41044C4.61201 126.249 4.71996 126.172 4.73582 126.016V125.842C4.71996 125.687 4.61201 125.609 4.41044 125.609H1.50664V123.751H6.09C6.26804 123.742 6.35654 123.655 6.35654 123.49V123.269C6.35654 123.13 6.26804 123.057 6.09 123.048Z" fill="#FF4500"/>
<path d="M12.9081 126.985C12.5869 127.758 11.8839 128.145 10.7973 128.148C9.70198 128.148 9.15458 127.673 9.15458 126.723C9.29271 125.737 10.0268 125.23 11.3529 125.202C12.1014 125.202 12.6206 125.297 12.9081 125.488V126.985ZM11.4041 124.416C9.18374 124.471 7.96052 125.243 7.73491 126.731C7.73491 128.244 8.78623 129 10.8904 129C11.8287 128.944 12.5004 128.727 12.9081 128.348V128.805C12.924 128.935 13.0974 129 13.4361 129H13.8894C14.2245 129 14.4005 128.935 14.4148 128.805V125.135C13.9697 124.655 12.9644 124.416 11.4041 124.416Z" fill="#FF4500"/>
<path d="M19.9276 125.18C20.7149 125.18 21.2838 125.337 21.6358 125.65C21.669 125.687 21.7279 125.705 21.8082 125.705C21.8624 125.705 21.9212 125.698 21.9893 125.684L22.8472 125.456C22.9224 125.427 22.9623 125.395 22.9623 125.356C22.9623 125.331 22.9495 125.305 22.9255 125.28C22.3684 124.71 21.3692 124.416 19.9276 124.399C17.584 124.428 16.4073 125.193 16.3971 126.698C16.4073 128.186 17.584 128.944 19.9276 128.972C21.3692 128.955 22.3684 128.661 22.9255 128.09C22.9495 128.065 22.9623 128.041 22.9623 128.015C22.9623 127.977 22.9224 127.944 22.8472 127.915L21.9893 127.687C21.9212 127.673 21.8624 127.666 21.8082 127.666C21.7279 127.666 21.669 127.684 21.6358 127.72C21.2838 128.033 20.7149 128.189 19.9276 128.189C18.6496 128.189 17.9917 127.693 17.9538 126.698C17.9917 125.687 18.6496 125.18 19.9276 125.18Z" fill="#FF4500"/>
<path d="M30.6783 124.421H30.2256C29.89 124.421 29.713 124.486 29.6997 124.616V127.167C29.3446 127.88 28.6688 128.242 27.6738 128.257C26.7616 128.257 26.3052 127.789 26.3052 126.856V124.616C26.2909 124.486 26.1154 124.421 25.7798 124.421H25.324C24.9879 124.421 24.8134 124.486 24.7991 124.616V126.872C24.7991 128.282 25.7604 128.988 27.6825 128.988C28.5844 128.988 29.2571 128.798 29.6997 128.418V128.805C29.713 128.935 29.89 129 30.2256 129H30.6783C31.017 129 31.1904 128.935 31.2058 128.805V124.616C31.1904 124.486 31.017 124.421 30.6783 124.421Z" fill="#FF4500"/>
<path d="M36.5167 128.114C36.5116 128.114 36.5059 128.116 36.4957 128.118C36.3755 128.146 36.1857 128.16 35.9268 128.16C35.3451 128.16 35.0551 127.972 35.0551 127.595V122.799C35.0387 122.668 34.8642 122.604 34.5286 122.604H34.0728C33.7377 122.604 33.5627 122.668 33.5469 122.799V127.641C33.5898 128.539 34.3823 128.987 35.9181 128.987C36.1729 128.987 36.4011 128.974 36.6031 128.945C36.7878 128.921 36.8845 128.754 36.8993 128.443V128.423C36.8993 128.217 36.7714 128.114 36.5167 128.114Z" fill="#FF4500"/>
<path d="M43.2329 126.985C42.9122 127.757 42.2062 128.145 41.1211 128.147C40.0252 128.147 39.4794 127.673 39.4794 126.723C39.6175 125.737 40.3511 125.23 41.6772 125.202C42.4261 125.202 42.9449 125.297 43.2329 125.488V126.985ZM44.2136 122.604H43.7599C43.4227 122.604 43.2467 122.668 43.2329 122.799V124.516C42.8063 124.448 42.3034 124.416 41.7273 124.416C39.507 124.471 38.2838 125.243 38.0587 126.731C38.0587 128.244 39.1115 129 41.2152 129C42.1524 128.944 42.8252 128.727 43.2329 128.348V128.805C43.2467 128.935 43.4227 129 43.7599 129H44.2136C44.5487 129 44.7247 128.935 44.7385 128.805V122.799C44.7247 122.668 44.5487 122.604 44.2136 122.604Z" fill="#FF4500"/>
<path d="M52.0622 126.985C51.7409 127.758 51.0364 128.145 49.9503 128.148C48.8555 128.148 48.3081 127.673 48.3081 126.723C48.4462 125.737 49.1809 125.23 50.5064 125.202C51.2554 125.202 51.7741 125.297 52.0622 125.488V126.985ZM50.5566 124.416C48.3368 124.471 47.1146 125.243 46.8889 126.731C46.8889 128.244 47.9403 129 50.045 129C50.9812 128.944 51.6544 128.727 52.0622 128.348V128.805C52.076 128.935 52.252 129 52.5891 129H53.0429C53.378 129 53.5545 128.935 53.5668 128.805V125.135C53.1227 124.655 52.1169 124.416 50.5566 124.416Z" fill="#FF4500"/>
<path d="M60.5955 126.985C60.2732 127.757 59.5698 128.145 58.4827 128.147C57.3894 128.147 56.8399 127.673 56.8399 126.723C56.9791 125.737 57.7127 125.23 59.0388 125.202C59.7888 125.202 60.3075 125.297 60.5955 125.488V126.985ZM61.5758 122.604H61.1199C60.7853 122.604 60.6099 122.668 60.5955 122.799V124.516C60.1678 124.448 59.6655 124.416 59.0899 124.416C56.8701 124.471 55.6443 125.243 55.4218 126.731C55.4218 128.244 56.4736 129 58.5773 129C59.5135 128.944 60.1863 128.727 60.5955 128.348V128.805C60.6099 128.935 60.7853 129 61.1199 129H61.5758C61.9119 129 62.0873 128.935 62.1012 128.805V122.799C62.0873 122.668 61.9119 122.604 61.5758 122.604Z" fill="#FF4500"/>
<path d="M67.7869 125.113C68.6234 125.113 69.0971 125.284 69.2066 125.625V125.65C69.2066 125.966 68.829 126.183 68.075 126.301C67.7573 126.352 67.439 126.377 67.1167 126.377C66.6599 126.377 66.1913 126.341 65.7104 126.27C65.9375 125.554 66.6292 125.169 67.7869 125.113ZM70.7061 127.919L69.8476 127.69C69.7801 127.677 69.7192 127.67 69.6681 127.67C69.5867 127.67 69.5279 127.688 69.4951 127.724C69.1452 128.064 68.5758 128.235 67.7869 128.235C66.6251 128.235 65.9401 127.831 65.7319 127.022C66.1749 127.052 66.6092 127.067 67.0385 127.067C69.2905 127.007 70.4411 126.514 70.4887 125.592C70.3214 124.822 69.4445 124.428 67.8596 124.411C65.6106 124.439 64.4094 125.19 64.2554 126.664C64.2667 128.177 65.4433 128.948 67.7869 128.975C69.2301 128.958 70.2277 128.665 70.7854 128.094C70.8089 128.069 70.8222 128.044 70.8222 128.019C70.8222 127.98 70.7828 127.947 70.7061 127.919Z" fill="#FF4500"/>
<path d="M81.1418 126.985C80.8195 127.757 80.1146 128.145 79.0295 128.147C77.9336 128.147 77.3862 127.673 77.3862 126.723C77.5269 125.737 78.258 125.23 79.584 125.202C80.334 125.202 80.8538 125.297 81.1418 125.488V126.985ZM82.1215 122.604H81.6672C81.3306 122.604 81.1541 122.668 81.1418 122.799V124.516C80.7126 124.448 80.2118 124.416 79.6347 124.416C77.4154 124.471 76.1932 125.243 75.9666 126.731C75.9666 128.244 77.0174 129 79.1231 129C80.0608 128.944 80.7326 128.727 81.1418 128.348V128.805C81.1541 128.935 81.3306 129 81.6672 129H82.1215C82.4566 129 82.6326 128.935 82.6459 128.805V122.799C82.6326 122.668 82.4566 122.604 82.1215 122.604Z" fill="#FF4500"/>
<path d="M88.3332 125.113C89.1691 125.113 89.6444 125.284 89.7523 125.625V125.65C89.7523 125.966 89.3758 126.183 88.6217 126.301C88.3045 126.352 87.9848 126.377 87.663 126.377C87.2071 126.377 86.7385 126.341 86.2566 126.27C86.4837 125.554 87.1754 125.169 88.3332 125.113ZM91.2533 127.919L90.3939 127.69C90.3268 127.677 90.2665 127.67 90.2133 127.67C90.1319 127.67 90.0741 127.688 90.0424 127.724C89.6899 128.064 89.122 128.235 88.3332 128.235C87.1708 128.235 86.4873 127.831 86.2796 127.022C86.7216 127.052 87.158 127.067 87.5847 127.067C89.8383 127.007 90.9868 126.514 91.0359 125.592C90.8676 124.822 89.9907 124.428 88.4048 124.411C86.1589 124.439 84.9556 125.19 84.8011 126.664C84.8119 128.177 85.989 128.948 88.3332 128.975C89.7758 128.958 90.774 128.665 91.3311 128.094C91.3556 128.069 91.3689 128.044 91.3689 128.019C91.3689 127.98 91.3285 127.947 91.2533 127.919Z" fill="#FF4500"/>
<path d="M98.8692 126.855L100.348 124.357L101.824 126.855H98.8692ZM101.103 123.214C101.06 123.15 100.992 123.1 100.902 123.065C100.82 123.034 100.701 123.018 100.549 123.018H99.9364C99.7972 123.018 99.677 123.038 99.5808 123.077C99.48 123.116 99.4125 123.162 99.3726 123.214L96.0652 128.805C96.0565 128.832 96.0503 128.852 96.0503 128.863C96.0503 128.954 96.1941 129 96.477 129H97.075C97.4076 129 97.6209 128.934 97.715 128.805L98.5172 127.453H102.178L102.977 128.805C103.073 128.934 103.289 129 103.625 129H104.007C104.287 129 104.426 128.954 104.426 128.863C104.426 128.852 104.421 128.832 104.411 128.805L101.103 123.214Z" fill="#FF4500"/>
<path d="M113.846 124.421C112.855 124.421 112.104 124.668 111.59 125.164C111.176 124.668 110.463 124.421 109.448 124.421C108.443 124.421 107.717 124.674 107.265 125.18V124.616C107.251 124.486 107.075 124.421 106.739 124.421H106.284C105.948 124.421 105.773 124.486 105.759 124.616V128.805C105.773 128.935 105.948 129 106.284 129H106.739C107.075 129 107.251 128.935 107.265 128.805V126.585C107.534 125.671 108.13 125.211 109.052 125.205C110.022 125.205 110.508 125.712 110.508 126.723V128.805C110.522 128.935 110.698 129 111.034 129H111.488C111.825 129 112 128.935 112.015 128.805V126.698C112.158 125.706 112.684 125.209 113.592 125.205C114.468 125.205 114.905 125.712 114.905 126.723V128.805C114.918 128.935 115.093 129 115.43 129H115.883C116.221 129 116.395 128.935 116.41 128.805V126.547C116.41 125.13 115.554 124.421 113.846 124.421Z" fill="#FF4500"/>
<path d="M121.939 125.113C122.776 125.113 123.249 125.284 123.358 125.625V125.65C123.358 125.966 122.982 126.183 122.227 126.301C121.911 126.352 121.59 126.377 121.268 126.377C120.811 126.377 120.344 126.341 119.863 126.27C120.089 125.554 120.782 125.169 121.939 125.113ZM124.858 127.919L124 127.69C123.932 127.677 123.873 127.67 123.819 127.67C123.739 127.67 123.68 127.688 123.647 127.724C123.296 128.064 122.727 128.235 121.939 128.235C120.777 128.235 120.091 127.831 119.885 127.022C120.328 127.052 120.762 127.067 121.19 127.067C123.443 127.007 124.593 126.514 124.641 125.592C124.473 124.822 123.596 124.428 122.01 124.411C119.764 124.439 118.561 125.19 118.407 126.664C118.417 128.177 119.595 128.948 121.939 128.975C123.38 128.958 124.379 128.665 124.936 128.094C124.961 128.069 124.974 128.044 124.974 128.019C124.974 127.98 124.934 127.947 124.858 127.919Z" fill="#FF4500"/>
<path d="M130.621 124.412C129.54 124.426 128.831 124.654 128.495 125.098V124.616C128.481 124.486 128.306 124.42 127.971 124.42H127.493C127.157 124.42 126.983 124.486 126.967 124.616V128.805C126.996 128.935 127.18 129 127.515 129H127.971C128.306 129 128.481 128.935 128.495 128.805V126.353C128.501 125.679 129.019 125.328 130.051 125.298C130.355 125.28 130.559 125.211 130.664 125.09L130.982 124.645C131 124.611 131.011 124.582 131.011 124.558C131.011 124.461 130.882 124.412 130.621 124.412Z" fill="#FF4500"/>
<path d="M133.415 124.421H132.96C132.624 124.421 132.45 124.486 132.436 124.616V128.805C132.45 128.935 132.624 129 132.96 129H133.415C133.752 129 133.928 128.935 133.941 128.805V124.616C133.928 124.486 133.752 124.421 133.415 124.421Z" fill="#FF4500"/>
<path d="M133.44 122.762H132.942C132.605 122.762 132.438 122.833 132.438 122.974V123.393C132.438 123.532 132.605 123.601 132.942 123.601H133.44C133.78 123.601 133.951 123.532 133.951 123.393V122.974C133.951 122.833 133.78 122.762 133.44 122.762Z" fill="#FF4500"/>
<path d="M139.714 125.18C140.502 125.18 141.071 125.337 141.423 125.65C141.454 125.687 141.513 125.705 141.594 125.705C141.648 125.705 141.707 125.698 141.776 125.684L142.632 125.456C142.709 125.427 142.748 125.395 142.748 125.356C142.748 125.331 142.736 125.305 142.712 125.28C142.154 124.71 141.156 124.416 139.714 124.399C137.37 124.428 136.192 125.193 136.183 126.698C136.192 128.186 137.37 128.944 139.714 128.972C141.156 128.955 142.154 128.661 142.712 128.09C142.736 128.065 142.748 128.041 142.748 128.015C142.748 127.977 142.709 127.944 142.632 127.915L141.776 127.687C141.707 127.673 141.648 127.666 141.594 127.666C141.513 127.666 141.454 127.684 141.423 127.72C141.071 128.033 140.502 128.189 139.714 128.189C138.435 128.189 137.777 127.693 137.74 126.698C137.777 125.687 138.435 125.18 139.714 125.18Z" fill="#FF4500"/>
<path d="M149.586 126.985C149.263 127.758 148.56 128.145 147.474 128.148C146.377 128.148 145.832 127.673 145.832 126.723C145.97 125.737 146.704 125.23 148.029 125.202C148.778 125.202 149.297 125.297 149.586 125.488V126.985ZM148.08 124.416C145.86 124.471 144.636 125.243 144.411 126.731C144.411 128.244 145.463 129 147.567 129C148.506 128.944 149.177 128.727 149.586 128.348V128.805C149.6 128.935 149.775 129 150.111 129H150.564C150.901 129 151.077 128.935 151.092 128.805V125.135C150.645 124.655 149.641 124.416 148.08 124.416Z" fill="#FF4500"/>
<path d="M156.633 124.416C155.698 124.471 155.024 124.69 154.616 125.068V124.616C154.602 124.486 154.45 124.421 154.161 124.421H153.565C153.275 124.421 153.126 124.486 153.111 124.616V128.805C153.126 128.935 153.301 129 153.637 129H154.091C154.426 129 154.602 128.935 154.616 128.805V126.432C154.937 125.659 155.643 125.27 156.727 125.268C157.775 125.268 158.3 125.703 158.3 126.573V128.805C158.311 128.935 158.489 129 158.826 129H159.279C159.615 129 159.79 128.935 159.805 128.805V126.589H159.79C159.747 125.14 158.697 124.416 156.633 124.416Z" fill="#FF4500"/>
<path d="M166.898 126.985C166.576 127.758 165.873 128.145 164.786 128.148C163.691 128.148 163.144 127.673 163.144 126.723C163.285 125.737 164.016 125.23 165.342 125.202C166.091 125.202 166.61 125.297 166.898 125.488V126.985ZM165.393 124.416C163.173 124.471 161.949 125.243 161.725 126.731C161.725 128.244 162.775 129 164.882 129C165.818 128.944 166.49 128.727 166.898 128.348V128.805C166.913 128.935 167.088 129 167.424 129H167.88C168.215 129 168.39 128.935 168.405 128.805V125.135C167.959 124.655 166.954 124.416 165.393 124.416Z" fill="#FF4500"/>
<path d="M13.5159 117.326L20.3472 103.688L49.0373 103.687C50.217 103.678 51.2244 103.223 51.5579 102.602L54.8454 96.3337L24.9321 96.3594C24.9321 96.3594 24.354 96.3187 24.0982 96.5842C24.0179 96.6689 23.6265 97.0734 23.6265 97.0734C23.6265 97.0734 26.892 90.589 31.592 90.589H55.8517C57.0356 90.589 58.0367 90.1406 58.3826 89.5251L62.4375 81.6018L32.8198 81.5759C23.2157 81.978 16.2043 86.5771 11.7841 95.3713L0.0175018 118.445H10.9518C12.1689 118.445 13.2002 117.97 13.5159 117.326Z" fill="#FF4500"/>
<path d="M83.8309 104.159H73.5703C73.5703 104.159 73.1201 104.17 73.003 104.17C72.5472 104.17 72.0356 104.645 72.0356 104.645L80.9045 92.9485L85.2367 103.498C85.2469 103.526 85.4613 104.159 83.8309 104.159ZM102.644 117.554L87.743 81.6015C87.2601 81.6045 79.867 81.6015 78.9267 81.6015C77.0604 81.6015 76.3959 82.1119 75.9943 82.5755L48.6435 118.445H59.366C61.4922 118.445 61.8584 117.908 62.1843 117.492L68.4411 109.341L85.3314 109.299C87.346 109.299 87.9047 110.104 87.9047 110.104L91.3216 118.445H100.341C100.341 118.445 103.016 118.445 102.644 117.554Z" fill="#FF4500"/>
<path d="M166.959 81.6022C164.265 81.6022 162.84 81.6022 161.238 83.3137L140.541 105.337C140.541 105.337 140.268 105.615 140.191 105.705C139.777 106.183 139.827 106.841 139.827 106.841L132.674 81.6022H122.275C119.465 81.6022 117.413 81.6022 116.867 83.512L105.354 118.446C106.699 118.419 112.427 118.446 112.427 118.446C117.274 118.446 117.274 118.446 117.874 116.561L124.677 95.8264L130.907 117.946C134.867 117.95 131.267 117.95 134.867 117.95H136.846C140.72 117.946 140.72 117.946 142.146 116.462L161.339 95.9751L153.936 118.446H161.37C165.786 118.446 165.786 118.446 166.477 116.536L177.996 81.6022H166.959Z" fill="#FF4500"/>
<path d="M87.6026 72.6201C77.5268 72.6201 68.0194 71.2382 59.6339 68.7914H68.8927L74.0685 54.7109L75.6191 50.5606C75.5853 50.5624 75.2037 50.5804 74.7801 50.6034C67.076 51.133 61.801 52.4421 57.8141 54.8278C52.6496 57.9189 50.4712 62.0551 49.4762 65.0633C47.8601 64.3336 46.3125 63.558 44.8355 62.7404C46.1953 59.6475 48.6986 55.9879 53.484 53.1239C59.6497 49.4336 68.4859 48.0616 83.5258 48.0616C83.5258 48.0616 114.237 48.0628 114.26 48.0628C117.522 48.0628 118.673 48.0628 120.924 46.2389L142.471 29.9385L103.4 29.8388C92.142 30.1766 81.3254 30.6307 69.7767 39.1464L60.0953 46.2988L69.2574 27.0958C53.7188 28.8661 48.0284 31.2597 43.6087 41.1052L37.1478 57.5743C30.3073 51.9541 26.2964 45.136 26.2964 37.7854C26.2964 18.5468 53.7434 2.95039 87.6026 2.95039C97.7465 2.95039 107.313 4.35183 115.74 6.82987L91.5204 6.78148C84.42 6.73191 76.7042 6.77912 69.5731 12.374C69.5731 12.374 55.1953 23.4309 48.5625 30.1188C52.4895 26.889 61.3574 24.9391 70.1604 24.7432L115.1 24.7385C115.101 24.7385 115.108 24.7379 115.108 24.7379C116.69 24.7379 117.986 24.7379 119.531 23.576C119.532 23.5751 126.148 18.3547 131.981 13.7524C142.469 20.0034 148.908 28.4669 148.908 37.7854C148.908 57.024 121.461 72.6201 87.6026 72.6201ZM135.061 11.3215C138.267 8.79247 140.691 6.88002 140.691 6.88002L125.789 6.84993C114.983 2.53498 101.814 0 87.6026 0C50.8769 0 21.1048 16.917 21.1048 37.7854C21.1048 46.7092 26.5522 54.9092 35.657 61.3741L32.7333 68.8274H43.0889C43.201 68.3963 43.335 67.4304 43.6645 66.1449C45.2612 66.9442 46.9259 67.7006 48.6535 68.4111C48.6239 68.5651 48.5967 68.6946 48.5717 68.7914H49.5949C60.3685 73.0633 73.4689 75.5705 87.6026 75.5705C124.327 75.5705 154.1 58.6535 154.1 37.7854C154.1 27.4791 146.835 18.1387 135.061 11.3215Z" fill="#FF4500"/>
</svg>
